<?xml version="1.0" encoding="utf-8"?>
<!-- Generator: Adobe Illustrator 24.0.0, SVG Export Plug-In . SVG Version: 6.00 Build 0)  -->
<svg version="1.1" id="Layer_1" xmlns="http://www.w3.org/2000/svg" xmlns:xlink="http://www.w3.org/1999/xlink" x="0px" y="0px"
	 viewBox="0 0 1000 116" style="enable-background:new 0 0 1000 116;" xml:space="preserve">
<style type="text/css">
	.st0{fill:#373737;}
</style>
<g>
	<g>
		<g>
			<path class="st0" d="M0,0.81h24.91V45.5h45.94V0.81h24.91v112.93H70.85V68.4H24.91v45.33H0V0.81z"/>
		</g>
		<g>
			<path class="st0" d="M161.76,0h22.97l48.53,113.74h-26.04l-10.35-25.33h-47.88l-10.35,25.33h-25.4L161.76,0z M187.96,66.47
				l-15.04-36.62l-15.04,36.62H187.96z"/>
		</g>
		<g>
			<path class="st0" d="M250.73,0.81h46.26c27.01,0,43.35,15.81,43.35,39.04v0.32c0,26.3-20.38,39.69-45.78,39.69h-18.93v33.88
				h-24.91V0.81z M295.37,57.76c12.45,0,19.73-7.42,19.73-17.1v-0.32c0-11.13-7.76-17.1-20.22-17.1h-19.25v34.52H295.37z"/>
		</g>
		<g>
			<path class="st0" d="M358.79,0.81h46.26c27.01,0,43.35,15.81,43.35,39.04v0.32c0,26.3-20.38,39.69-45.78,39.69H383.7v33.88
				h-24.91V0.81z M403.43,57.76c12.45,0,19.73-7.42,19.73-17.1v-0.32c0-11.13-7.77-17.1-20.22-17.1H383.7v34.52H403.43z"/>
		</g>
		<g>
			<path class="st0" d="M497.09,69.21l-43.51-68.4h29.12l27.01,45.33l27.5-45.33h28.31L522,68.73v45.01h-24.91V69.21z"/>
		</g>
	</g>
	<g>
		<g>
			<path class="st0" d="M667.59,1.13v50.17h-65.35V1.13h-12.79v112.93h12.79V63.24h65.35v50.83h12.77V1.13H667.59z"/>
		</g>
		<g>
			<path class="st0" d="M986.58,1.13l-32.35,94.05L923.17,0.81h-10.52l-31.06,94.37L849.26,1.13h-13.92l40.44,113.73h10.67
				l31.22-91.64l31.06,91.64h10.84L1000,1.13H986.58z"/>
		</g>
		<g>
			<g>
				<path class="st0" d="M815.24,30.9c-1.89,3.69-5.3,6.48-9.4,7.53c2.44,5.83,3.76,12.33,3.76,19.16v0.33
					c0,25.66-18.43,46.31-44.32,46.31c-25.88,0-44.64-20.98-44.64-46.64v-0.31c0-6.67,1.24-13,3.55-18.71
					c-4.02-0.87-7.43-3.37-9.48-6.79c-0.38-0.62-1.3-0.6-1.61,0.06c-3.71,7.85-5.72,16.64-5.72,25.75v0.33
					c0,31.14,23.13,58.09,57.59,58.09c34.45,0,57.91-27.27,57.91-58.41v-0.31c0-9.38-2.11-18.39-5.99-26.39
					C816.55,30.21,815.59,30.23,815.24,30.9z"/>
			</g>
			<g>
				<path class="st0" d="M805.54,15c0,6.13-4.98,11.09-11.12,11.09c-6.14,0-11.12-4.96-11.12-11.09c0-6.13,4.98-11.09,11.12-11.09
					C800.56,3.91,805.54,8.88,805.54,15z"/>
			</g>
			<g>
				<path class="st0" d="M746.76,15c0,6.13-4.98,11.09-11.12,11.09c-6.14,0-11.12-4.96-11.12-11.09c0-6.13,4.98-11.09,11.12-11.09
					C741.78,3.91,746.76,8.88,746.76,15z"/>
			</g>
		</g>
	</g>
</g>
</svg>
