<svg xmlns="http://www.w3.org/2000/svg" xmlns:xlink="http://www.w3.org/1999/xlink" width="28.904" height="28.904" viewBox="0 0 28.904 28.904">
  <defs>
    <clipPath id="clip-path">
      <rect id="Rectangle_3415" data-name="Rectangle 3415" width="28.904" height="28.904" rx="4" transform="translate(0 0)" fill="none"/>
    </clipPath>
  </defs>
  <g id="That_my_bear_icon" data-name="That my bear icon" transform="translate(-5295.954 -3421.823)">
    <g id="Group_6887" data-name="Group 6887" transform="translate(5295.954 3421.823)" clip-path="url(#clip-path)">
      <g id="Group_6886" data-name="Group 6886" transform="translate(-0.731 -0.732)">
        <path id="Path_2959" data-name="Path 2959" d="M5234.968,3391.2v-30.361h30.366a.249.249,0,0,1,.011.119v30.123c0,.143.017.129-.131.129h-6.491c-.042-.032-.015-.067,0-.1a1.708,1.708,0,0,1,.266-.416c.08-.091.107-.093.191-.009.05.05.1.031.145,0a.833.833,0,0,0,.17-.171,2.215,2.215,0,0,1,.368-.441c.054-.042.048-.118.05-.18a.192.192,0,0,1,.119-.2.183.183,0,0,0,.084-.085.278.278,0,0,1,.123-.13c.042-.021.052-.068.069-.108a1.6,1.6,0,0,1,.166-.346.418.418,0,0,1,.208-.17.143.143,0,0,0,.1-.124.7.7,0,0,1,.14-.3.955.955,0,0,0,.189-.575c0-.135.021-.269.022-.4a.252.252,0,0,1,.055-.17.107.107,0,0,0,.012-.13.512.512,0,0,1-.036-.095c-.024-.092-.008-.134.081-.165.069-.024.074-.056.038-.11a.99.99,0,0,1-.117-.246.246.246,0,0,1,.121-.326c.234-.155.488-.274.728-.417a1.17,1.17,0,0,0,.527-.567,1.7,1.7,0,0,0,.1-.523,3.675,3.675,0,0,0-.2-1.312c-.153-.5-.352-.984-.522-1.478-.117-.338-.227-.677-.366-1.007-.062-.143-.133-.28-.192-.423-.012-.03-.009-.064-.032-.09a.175.175,0,0,1-.016-.023c-.01-.016-.021-.031-.032-.047a7.914,7.914,0,0,0-1-1.482,15.649,15.649,0,0,0-1.243-1.4,2.832,2.832,0,0,0-1.168-.7,1.7,1.7,0,0,0-.62-.061h-.019c-.056,0-.128.021-.16-.034s.037-.086.058-.13a.51.51,0,0,0,.083-.365c-.021-.094.014-.12.1-.092a.791.791,0,0,0,.156.043c.1.01.126-.016.124-.118a.386.386,0,0,0-.063-.179c-.058-.1-.04-.135.081-.142h.01c.2-.008.232-.049.17-.247a.788.788,0,0,0-.13-.239c-.063-.082-.042-.127.061-.14h.03c.164-.009.188-.036.141-.2a.348.348,0,0,1,.021-.281.292.292,0,0,0,0-.265,1.41,1.41,0,0,1-.078-.2c-.023-.085,0-.118.089-.129.037,0,.074,0,.111-.006a.228.228,0,0,0,.208-.213.562.562,0,0,0-.04-.287c-.028-.06-.021-.106.052-.122s.074-.069.067-.125c-.011-.087-.037-.172-.042-.26s-.023-.163.063-.218c.033-.02.026-.061.023-.094a1.989,1.989,0,0,1,.062-.439.139.139,0,0,1,.1-.118.462.462,0,0,0,.267-.2c.028-.051.076-.042.126-.029.094.026.1.019.117-.076.016-.119.017-.121.128-.1.092.016.139-.042.176-.107a.678.678,0,0,1,.116-.187c.028-.025.021-.062.013-.1s-.025-.083-.036-.126c-.016-.065,0-.11.075-.1s.132-.057.184-.107c.111-.105.11-.106.051-.239-.044-.1-.02-.148.084-.164.064-.01.128-.017.191-.025a.424.424,0,0,0,.393-.437c0-.111.005-.209.134-.25a.074.074,0,0,0,.043-.093.174.174,0,0,1,.045-.14.842.842,0,0,0,.2-.559c0-.063.028-.092.088-.064.075.035.078-.008.077-.063a2.342,2.342,0,0,0-.048-.279c-.014-.092-.009-.169.093-.207.047-.017.044-.056.028-.092a.547.547,0,0,1,.083-.535,1.019,1.019,0,0,0,.083-.15c.025-.062.024-.111-.053-.134a.257.257,0,0,1-.088-.048.136.136,0,0,1-.033-.217c.029-.041.062-.08.087-.124a.218.218,0,0,0,.015-.229.707.707,0,0,1-.061-.234.879.879,0,0,0-.052-.206.168.168,0,0,1-.009-.118.216.216,0,0,0-.06-.222,2.45,2.45,0,0,0-.3-.276c-.1-.088-.1-.116.014-.179.067-.036.027-.075.007-.108a1.89,1.89,0,0,0-.324-.4,4.194,4.194,0,0,0-.833-.6.578.578,0,0,0-.229-.075c-.036,0-.081-.008-.089-.051s.039-.055.069-.073a.694.694,0,0,1,.064-.03c.044-.022.049-.052.019-.089a1.592,1.592,0,0,1-.1-.127c-.035-.047-.079-.036-.119-.016-.12.061-.2.01-.3-.067a3.506,3.506,0,0,0-1.272-.708.549.549,0,0,0-.121-.012,5.285,5.285,0,0,0-1.432.165,4.726,4.726,0,0,1-1.014.117c-.081,0-.125.008-.108.11a.215.215,0,0,1-.135.218.167.167,0,0,1-.219-.073,2.05,2.05,0,0,0-.085.265c-.009.032-.02.075-.058.074s-.038-.048-.045-.079c0-.01,0-.021-.005-.031,0-.026,0-.06-.034-.068s-.051.026-.069.05a.32.32,0,0,0-.067.2c0,.091,0,.182,0,.273s-.039.122-.129.111c-.469-.059-.943-.053-1.411-.116a1.294,1.294,0,0,1-.148-.031.129.129,0,0,1-.114-.123c0-.085-.054-.108-.129-.105a.849.849,0,0,0-.129.014c-.113.02-.136,0-.119-.115a.054.054,0,0,0,0-.038c-.021-.011-.037,0-.053.012l-.022.014a.407.407,0,0,0-.043.033c-.068.05-.135.1-.207.145a.114.114,0,0,1-.147-.006,1.573,1.573,0,0,1-.2-.168.538.538,0,0,0-.235-.138.379.379,0,0,0-.253.051.429.429,0,0,1-.183.052c-.147,0-.2-.027-.254-.164-.022-.055-.046-.046-.082-.018a.7.7,0,0,0-.075.082.856.856,0,0,1-.214.184c-.044.026-.1.038-.107-.034s-.044-.054-.084-.032a.5.5,0,0,0-.139.116c-.082.095-.153.2-.235.292-.024.028-.049.064-.092.048s-.036-.065-.034-.105a.76.76,0,0,1,.238-.457c.025-.03.064-.05.071-.1a.361.361,0,0,0-.2.028,1.8,1.8,0,0,0-.663.452.293.293,0,0,0-.072.195c0,.029,0,.066-.042.073s-.054-.022-.07-.048c-.031-.048-.057-.1-.087-.148a.321.321,0,0,0-.118-.109c-.093-.048-.138-.023-.145.082-.013.214-.032.222-.224.107a.142.142,0,0,0-.1-.037.173.173,0,0,0-.142.041.12.12,0,0,1-.18,0,.277.277,0,0,0-.351-.046.184.184,0,0,1-.254-.046.47.47,0,0,0-.128-.1.193.193,0,0,0-.292.076.745.745,0,0,0-.065.19c-.027.092-.066.108-.148.064a.416.416,0,0,1-.06-.038.276.276,0,0,0-.384-.012c-.056.045-.136.052-.193.1-.036.032-.083.019-.127,0s-.083-.042-.127-.058a.145.145,0,0,0-.211.091c-.066.155-.066.155-.231.14a.5.5,0,0,0-.581.317c-.016.031-.027.078-.074.069s-.047-.052-.052-.089c0-.013,0,0,0-.01-.016-.168-.057-.2-.227-.184-.115.012-.229.028-.288.153-.026.057-.08.05-.132.034-.153-.046-.153-.045-.24.083-.043.064-.083.062-.124-.019a3.338,3.338,0,0,0-.221-.363c-.03-.044-.061-.067-.118-.039s-.064.052-.042.1a.312.312,0,0,1,.035.166c0,.03-.007.063-.044.071s-.049-.018-.064-.04c-.041-.062-.076-.128-.117-.19a1.134,1.134,0,0,0-.238-.287.385.385,0,0,0-.114-.064c-.06-.02-.094-.006-.107.063-.02.1-.037.111-.136.071-.065-.027-.131-.054-.2-.075a1.248,1.248,0,0,0-.907.071c-.245.106-.5.19-.752.273a2.366,2.366,0,0,0-.543.267,7.436,7.436,0,0,0-.877.625.858.858,0,0,0-.25.326.383.383,0,0,1-.14.182.8.8,0,0,0-.307.5c-.044.182-.073.206-.262.212-.146,0-.143.005-.169.143a1.026,1.026,0,0,0,0,.5.131.131,0,0,1-.015.127.533.533,0,0,0-.074.416,1.881,1.881,0,0,1-.015.564,1.143,1.143,0,0,0,.048.519.451.451,0,0,1-.024.324.363.363,0,0,0-.036.177.112.112,0,0,0,.054.112.1.1,0,0,1,.045.13,1.045,1.045,0,0,0-.019.578c.03.131.053.264.073.416.028-.053.039-.095.063-.129s.055-.073.106-.062.056.059.062.1c0,.02,0,.04,0,.061a.6.6,0,0,0,.288.535.53.53,0,0,1,.242.367.617.617,0,0,0,.4.507.43.43,0,0,1,.287.4.105.105,0,0,0,.1.11c.076.016.153.026.229.04.1.018.124.053.111.153a.616.616,0,0,1-.017.069c-.021.069,0,.1.076.1.162.013.159.017.208.167a.561.561,0,0,0,.473.452.069.069,0,0,1,.063.1.3.3,0,0,0,.042.27.255.255,0,0,1,.036.155,2.111,2.111,0,0,0,.039.371c0,.021.008.045.024.054.087.047.073.126.073.2a1.542,1.542,0,0,0,.342.952.36.36,0,0,1,.1.378.082.082,0,0,0,.046.109.2.2,0,0,1,.1.24.577.577,0,0,0,.093.4,2.181,2.181,0,0,0,.53.63.482.482,0,0,0,.1.064,3.91,3.91,0,0,1,.993.648.828.828,0,0,0,.145.091c.081.044.164.078.248.115.041.017.087.035.087.088s-.055.061-.094.076a1.658,1.658,0,0,0-.654.5,11.673,11.673,0,0,0-1.088,1.419c-.011.015-.024.028-.034.043a.215.215,0,0,1-.016.022.237.237,0,0,0-.035.072c-.278.557-.6,1.094-.864,1.656-.117.243-.225.489-.329.738a1.986,1.986,0,0,1-.111.238.177.177,0,0,0-.039.109c-.286.8-.411,1.633-.638,2.444a2.856,2.856,0,0,1-.217.586,3.957,3.957,0,0,0-.239.524c-.063.182-.057.2.131.234.374.072.75.133,1.126.189a.833.833,0,0,1,.169.03c.065.025.083.094.023.123-.182.09-.147.273-.192.421a.909.909,0,0,1-.048.173.3.3,0,0,0,0,.291.335.335,0,0,1,.027.254.221.221,0,0,0,.061.249.145.145,0,0,1,.031.184,5.358,5.358,0,0,1-.317.666c-.023.042-.078.092-.042.134s.093,0,.141-.016.067-.032.1,0,.02.077.009.115a1.642,1.642,0,0,0-.052.571.922.922,0,0,1,.024.269.087.087,0,0,1-.036.006h-5.211A.247.247,0,0,1,5234.968,3391.2Z" transform="translate(-5234.968 -3360.837)" fill="#84382d"/>
        <path id="Path_2960" data-name="Path 2960" d="M7214.655,3391.119c.044,0,.088,0,.131,0h6.335c.152,0,.152,0,.152-.147v-30.214c.006,0,.021-.01.021.01s0,.054,0,.081v30.291h-6.641s-.007-.008,0-.012S7214.653,3391.119,7214.655,3391.119Z" transform="translate(-7190.907 -3360.753)" fill="#caa395"/>
        <path id="Path_2961" data-name="Path 2961" d="M5700.085,5889.028a.027.027,0,0,0,0,.017H5681.7c-.006,0-.008,0-.008-.009s0-.006,0-.006l0-.009a.136.136,0,0,1,.1-.036h18.073c.07,0,.143-.018.2.035Z" transform="translate(-5676.336 -5858.662)" fill="#7e7b7b"/>
        <path id="Path_2962" data-name="Path 2962" d="M5240.329,5892.575a.051.051,0,0,1,0,.016h-5.283c-.027,0-.062.021-.082-.019h5.23C5240.241,5892.57,5240.285,5892.574,5240.329,5892.575Z" transform="translate(-5234.968 -5862.208)" fill="#caa496"/>
        <path id="Path_2963" data-name="Path 2963" d="M5476.806,3591.149c-.044,0-.087.005-.132.005h-18.126c-.041,0-.081,0-.122,0a.651.651,0,0,1-.06-.294,1.3,1.3,0,0,1,.056-.538.865.865,0,0,0,.019-.116.639.639,0,0,1-.176.073.223.223,0,0,1-.081,0,.047.047,0,0,1-.037-.069.316.316,0,0,1,.028-.053,6.138,6.138,0,0,0,.359-.735c.009-.022.015-.045.024-.066a.048.048,0,0,0-.021-.069l-.008-.006a.241.241,0,0,1-.086-.3.254.254,0,0,0-.018-.211.323.323,0,0,1,0-.344c.024-.044.063-.09.03-.15-.005-.011.006-.032.012-.048a1.047,1.047,0,0,0,.049-.205c.013-.078.032-.164.14-.171a.042.042,0,0,0,.018-.008c.021-.013.04-.031.032-.057s-.029-.025-.049-.028l-.28-.041c-.176-.027-.353-.053-.529-.084s-.373-.057-.556-.1l-.049-.013c-.088-.027-.093-.041-.069-.13a3.35,3.35,0,0,1,.283-.658,3.366,3.366,0,0,0,.241-.684c.078-.3.147-.608.219-.913.043-.186.082-.374.13-.559.06-.231.119-.462.2-.687.022-.06.042-.12.063-.18.016-.033.022-.071.041-.1.087-.2.174-.4.26-.6.126-.293.278-.574.418-.861.109-.223.235-.438.354-.656.073-.135.14-.275.211-.412.023-.042.049-.081.073-.122.012-.021.025-.041.037-.062h0c.015-.01.009-.03.022-.04a8.818,8.818,0,0,1,.568-.811c.237-.272.447-.567.708-.817a1.221,1.221,0,0,1,.554-.338c.014,0,.026-.01.028-.025a.031.031,0,0,0-.02-.032c-.031-.014-.06-.03-.091-.042a2.332,2.332,0,0,1-.308-.15.216.216,0,0,1-.058-.04,2.189,2.189,0,0,0-.527-.388,1.2,1.2,0,0,1-.232-.162.289.289,0,0,0-.143-.071.483.483,0,0,1-.221-.115,2.285,2.285,0,0,1-.515-.618.674.674,0,0,1-.108-.373.4.4,0,0,1,.012-.09.12.12,0,0,0-.061-.153c-.016-.011-.036-.017-.054-.027a.085.085,0,0,1-.049-.116c.006-.019.017-.037.023-.056a.155.155,0,0,0,0-.135.627.627,0,0,0-.15-.224.185.185,0,0,1-.037-.048,2.043,2.043,0,0,1-.236-.556,1.287,1.287,0,0,1-.026-.422c0-.032,0-.052-.039-.049s-.056-.038-.061-.068a1.944,1.944,0,0,1-.04-.431.146.146,0,0,0-.024-.1.3.3,0,0,1-.034-.352c-.03-.035-.062-.011-.092-.016a.5.5,0,0,1-.316-.183.724.724,0,0,1-.165-.353c-.009-.055-.034-.077-.085-.078s-.088,0-.132,0-.072-.026-.067-.079a.363.363,0,0,1,.023-.088.271.271,0,0,0,.019-.088c0-.043-.012-.07-.062-.072a1.78,1.78,0,0,1-.27-.04c-.1-.018-.118-.034-.117-.131a.411.411,0,0,0-.27-.391c-.031-.014-.059-.031-.09-.045a.544.544,0,0,1-.312-.431c-.009-.046-.024-.091-.034-.137a.343.343,0,0,0-.161-.224c-.062-.039-.131-.071-.159-.149a.028.028,0,0,0-.013-.015c-.155-.085-.157-.24-.174-.386-.006-.047,0-.094,0-.142,0-.021-.005-.042-.027-.05s-.044.008-.059.028a.359.359,0,0,0-.056.106.373.373,0,0,1-.05.117c-.021,0-.028-.011-.031-.026-.035-.206-.065-.412-.105-.616a.94.94,0,0,1,.04-.428c.021-.083.028-.085-.051-.11a.061.061,0,0,1-.048-.066.5.5,0,0,1,.055-.293.275.275,0,0,0,.023-.206c-.014-.069-.027-.139-.044-.207a.951.951,0,0,1-.008-.451,1.475,1.475,0,0,0,.006-.472.841.841,0,0,1,.008-.331.182.182,0,0,1,.053-.1.1.1,0,0,0,.03-.126,1.26,1.26,0,0,1,.007-.6c.01-.073.033-.089.108-.092s.127,0,.191-.007a.1.1,0,0,0,.1-.09,1.461,1.461,0,0,1,.049-.2.728.728,0,0,1,.295-.409.307.307,0,0,0,.129-.175.7.7,0,0,1,.224-.306,3.229,3.229,0,0,1,.48-.368,1.3,1.3,0,0,1,.242-.165,1.621,1.621,0,0,0,.254-.163c.04-.026.081-.048.122-.072a1.851,1.851,0,0,1,.381-.159c.284-.088.559-.2.836-.308a1.25,1.25,0,0,1,1.038.051.105.105,0,0,0,.071.023c.019-.028,0-.062.007-.094,0-.069.036-.1.1-.086a.4.4,0,0,1,.216.123,1.959,1.959,0,0,1,.3.419c.015.024.02.057.062.071a.24.24,0,0,0-.007-.156c-.014-.037-.03-.074-.046-.111-.025-.057-.025-.06.033-.071a.2.2,0,0,0,.066-.023c.072-.044.073-.044.124.027a2.262,2.262,0,0,1,.237.388c.011.023.016.052.052.066a.256.256,0,0,0,.039-.087c.042-.1.084-.115.183-.082a.187.187,0,0,0,.018.007c.043.008.08.049.123.04s.038-.067.062-.1a.234.234,0,0,1,.133-.086.779.779,0,0,1,.35-.008.066.066,0,0,1,.058.071c0,.044,0,.088,0,.132,0,.029-.005.06.018.084.029,0,.031-.027.037-.044a.543.543,0,0,1,.655-.358c.112.019.124.016.154-.095a.294.294,0,0,1,.033-.084.163.163,0,0,1,.193-.07c.059.017.107.056.164.077.079.029.084.029.137-.035.021-.025.04-.047.076-.042a.12.12,0,0,0,.1-.039.483.483,0,0,1,.084-.055.192.192,0,0,1,.184,0,1.505,1.505,0,0,1,.179.113c.087.06.091.059.113-.042.005-.03.011-.06.018-.089a.385.385,0,0,1,.1-.174.2.2,0,0,1,.249-.045.477.477,0,0,1,.192.145.12.12,0,0,0,.15.045.52.52,0,0,0,.075-.027c.039-.019.074-.073.112-.059.083.029.182.03.244.107a.108.108,0,0,0,.021.021c.055.047.058.05.105,0a.166.166,0,0,1,.189-.057c.032.018.07.021.1.041l.124.067c.038.02.059.007.06-.035s0-.1,0-.152c0-.1.046-.127.139-.1a.313.313,0,0,1,.161.117.926.926,0,0,1,.1.174.1.1,0,0,0,.044.053c.026-.017.016-.043.015-.063a.283.283,0,0,1,.093-.226,1.948,1.948,0,0,1,.667-.445.621.621,0,0,1,.2-.036c.023,0,.049,0,.063.023s-.009.043-.024.06c-.054.061-.107.122-.162.181a.607.607,0,0,0-.156.385c0,.017-.005.036.015.042s.031-.01.041-.023c.054-.07.106-.14.162-.208a.945.945,0,0,1,.208-.219.605.605,0,0,1,.107-.057c.047-.017.068,0,.063.055,0,.024-.032.054,0,.071s.05-.014.071-.029a.967.967,0,0,0,.212-.2.826.826,0,0,1,.113-.1c.036-.031.058-.02.068.028,0,.016,0,.034.005.05a.159.159,0,0,0,.165.146.343.343,0,0,0,.222-.047.556.556,0,0,1,.271-.069.086.086,0,0,1,.1.054c.017.052.057.062.1.059s.089.015.1.077a.089.089,0,0,0,.092.088c.06,0,.06.01.114.088a3.111,3.111,0,0,0,.294-.191c.011-.012.03-.007.04-.021h0a.546.546,0,0,1,.082-.04l.027-.013a.032.032,0,0,1,.037,0c.013.012.006.026,0,.036a.183.183,0,0,0-.044.089c-.008.057,0,.071.056.051a.563.563,0,0,1,.22-.024c.087,0,.1.021.112.108s.009.1.1.125a2.723,2.723,0,0,0,.47.062c.175.012.349.027.525.032s.348.031.522.047l.051.007c.047.006.068-.013.068-.061,0-.108,0-.216,0-.324a.357.357,0,0,1,.129-.254c.051-.048.083-.037.1.03s.013.106.02.16c.025,0,.028-.016.029-.029.014-.1.065-.2.083-.3a.113.113,0,0,1,.019-.046.022.022,0,0,1,.041,0,.125.125,0,0,1,.016.038.117.117,0,0,0,.175.071.2.2,0,0,0,.108-.235c0-.016-.013-.031-.019-.046s0-.047.031-.051.04,0,.061,0a4.947,4.947,0,0,0,1.181-.14c.206-.051.417-.073.626-.108a5.382,5.382,0,0,1,.6-.035,1.3,1.3,0,0,1,.566.124,3.4,3.4,0,0,1,.536.3c.091.057.179.119.27.177a.767.767,0,0,1,.191.165.125.125,0,0,0,.169.039c.034-.015.069-.026.1-.042a.066.066,0,0,1,.1.029.719.719,0,0,0,.13.166c.047.054.04.082-.026.116a1.165,1.165,0,0,0-.157.065.026.026,0,0,0,.028.024.807.807,0,0,1,.455.176,5.143,5.143,0,0,1,.616.459,2.166,2.166,0,0,1,.415.506c.051.084.038.1-.062.122a.2.2,0,0,0-.03,0c-.04.012-.049.037-.017.066.049.045.1.087.154.13a1.157,1.157,0,0,1,.228.228c.053.074.094.151.032.241-.016.024,0,.045.009.066a.862.862,0,0,1,.063.222.679.679,0,0,0,.089.282c.038.05,0,.124-.031.181a.688.688,0,0,1-.117.165c-.049.055-.047.075,0,.129a.224.224,0,0,0,.157.084c.05,0,.063.033.058.075a.385.385,0,0,1-.058.16,2.277,2.277,0,0,0-.143.256.429.429,0,0,0,.007.333c.008.022.019.044.025.066s0,.059-.039.066l-.039.009c-.069.02-.083.036-.072.108a.919.919,0,0,0,.032.188.727.727,0,0,1,.026.24c0,.06-.022.069-.077.036-.028-.017-.05-.045-.085-.051-.029.021,0,.043,0,.064a.883.883,0,0,1-.137.478.6.6,0,0,1-.067.09c-.037.042-.071.077-.035.141a.08.08,0,0,1-.063.108c-.141.022-.126.119-.123.217a.432.432,0,0,1-.228.41.465.465,0,0,1-.21.066c-.067,0-.134.011-.2.019s-.076.026-.048.087a.869.869,0,0,0,.08.14c.024.034.034.058-.014.078a.367.367,0,0,0-.125.115c-.067.073-.134.136-.252.069a.7.7,0,0,0,.052.185.283.283,0,0,1,.017.1c0,.029-.007.056-.036.066a.12.12,0,0,0-.08.107.268.268,0,0,1-.081.137c-.073.072-.109.077-.2.029a.03.03,0,0,0-.036,0,.368.368,0,0,0-.005.112c-.008.1-.056.132-.148.092a.192.192,0,0,0-.09-.034.345.345,0,0,1-.178.205,1.238,1.238,0,0,1-.122.049.1.1,0,0,0-.076.092,1.275,1.275,0,0,1-.046.237.714.714,0,0,0-.007.191c0,.034,0,.068,0,.1s-.009.05-.042.043c-.055-.013-.045.016-.049.055a1.2,1.2,0,0,0,.036.319c0,.013.007.026.009.04.016.168,0,.18-.132.182,0,0-.01.008-.021.017a.513.513,0,0,1,.076.343.251.251,0,0,1-.26.263h-.01c-.219,0-.169,0-.113.173a.8.8,0,0,0,.044.1.34.34,0,0,1-.014.347.142.142,0,0,0-.011.159.423.423,0,0,1,.034.187c0,.073-.027.1-.1.1-.047,0-.1,0-.141,0-.02,0-.043,0-.055.019s.01.037.023.05a.625.625,0,0,1,.122.184.528.528,0,0,1,.057.264c0,.073-.022.1-.1.1s-.121,0-.182,0a.083.083,0,0,0-.061.016,1.186,1.186,0,0,0,.08.127.392.392,0,0,1,.036.226c-.006.065-.025.079-.093.08a.524.524,0,0,1-.216-.047c-.025-.011-.049-.038-.092-.02a.567.567,0,0,1-.146.568c.056,0,.1,0,.154,0a1.824,1.824,0,0,1,.716.084,2.365,2.365,0,0,1,.5.229,4.387,4.387,0,0,1,.869.722c.268.272.5.572.748.863.19.227.383.453.561.69a8.12,8.12,0,0,1,.494.751c.068.113.125.231.188.347.011.011.006.03.02.041h0c.02.023.023.056.041.081a7.2,7.2,0,0,1,.383.9c.151.442.3.885.469,1.322.126.334.238.672.332,1.016a3.156,3.156,0,0,1,.088,1.231,1.139,1.139,0,0,1-.577.868c-.209.125-.423.238-.634.358-.067.039-.132.082-.2.123a.135.135,0,0,0-.067.116.558.558,0,0,0,.092.315c.025.047.056.092.082.139s.01.06-.032.066l-.05.008c-.094.019-.112.047-.08.139a.622.622,0,0,0,.067.146c.022.032.017.06-.019.073s-.056.06-.067.1a1.427,1.427,0,0,0-.018.241c-.01.138-.015.275-.031.413a.831.831,0,0,1-.165.4.748.748,0,0,0-.157.356c0,.041-.017.072-.061.081a.484.484,0,0,0-.327.318c-.039.078-.066.163-.1.244-.013.031-.019.074-.055.079-.074.01-.092.064-.121.119a.2.2,0,0,1-.134.114c-.047.01-.06.037-.062.078,0,.071-.013.141-.017.211a.086.086,0,0,1-.043.075.621.621,0,0,0-.2.206,2.759,2.759,0,0,1-.3.371.224.224,0,0,1-.151.073c-.051,0-.089-.009-.1-.071s-.032-.059-.074-.018a1.381,1.381,0,0,0-.23.307C5476.883,3591,5476.846,3591.075,5476.806,3591.149Z" transform="translate(-5453.063 -3560.792)" fill="#040505"/>
        <path id="Path_2964" data-name="Path 2964" d="M6318.824,3664.68a.124.124,0,0,1-.1-.042A.117.117,0,0,1,6318.824,3664.68Z" transform="translate(-6305.728 -3660.994)" fill="#391b15"/>
        <path id="Path_2965" data-name="Path 2965" d="M5672.268,5263.056a.135.135,0,0,1-.041.1A.111.111,0,0,1,5672.268,5263.056Z" transform="translate(-5666.982 -5240.242)" fill="#57271f"/>
        <path id="Path_2966" data-name="Path 2966" d="M6651.3,3630.842a.106.106,0,0,1-.082.04A.078.078,0,0,1,6651.3,3630.842Z" transform="translate(-6634.23 -3627.602)" fill="#462019"/>
        <path id="Path_2967" data-name="Path 2967" d="M7434.687,4989.6a.1.1,0,0,1-.04-.082A.08.08,0,0,1,7434.687,4989.6Z" transform="translate(-7408.268 -4969.99)" fill="#421f19"/>
        <path id="Path_2968" data-name="Path 2968" d="M5785.443,5036.77a.065.065,0,0,1-.038.063A.064.064,0,0,1,5785.443,5036.77Z" transform="translate(-5778.804 -5016.67)" fill="#442019"/>
        <path id="Path_2969" data-name="Path 2969" d="M6647.944,3634.171a.04.04,0,0,1-.04.021A.047.047,0,0,1,6647.944,3634.171Z" transform="translate(-6630.959 -3630.892)" fill="#462019"/>
        <path id="Path_2970" data-name="Path 2970" d="M7433,4986.157a.042.042,0,0,1-.02-.042A.045.045,0,0,1,7433,4986.157Z" transform="translate(-7406.621 -4966.624)" fill="#421f19"/>
        <path id="Path_2971" data-name="Path 2971" d="M5788.583,5033.476a.041.041,0,0,1-.021.04A.042.042,0,0,1,5788.583,5033.476Z" transform="translate(-5781.923 -5013.416)" fill="#442019"/>
        <path id="Path_2972" data-name="Path 2972" d="M6088.323,4465.345c-.105-.136-.2-.256-.292-.375l-.452-.571c-.008-.01-.016-.021-.025-.031s-.033-.04-.059-.027-.012.042-.009.063c.051.433.137.859.218,1.286.117.612.259,1.219.386,1.83.018.086.038.171.051.257.017.1-.011.135-.116.14l-1.141.048a.164.164,0,0,1-.177-.134c-.052-.153-.1-.308-.156-.459-.2-.526-.377-1.06-.558-1.592a11.036,11.036,0,0,1-.518-1.972,4.636,4.636,0,0,1-.028-1.16c.005-.056.018-.113.028-.169a.226.226,0,0,1,.229-.213q.211-.022.423-.04l1.068-.1.07-.006a.211.211,0,0,1,.232.135,6.268,6.268,0,0,0,.393.659c.07.1.136.209.2.315.037.057.056.061.092,0,.072-.114.144-.229.207-.347a3.281,3.281,0,0,1,.23-.369,3.291,3.291,0,0,0,.23-.357.272.272,0,0,1,.253-.153c.367-.009.734-.024,1.1-.036.111,0,.223-.006.333-.006a.165.165,0,0,1,.186.187q-.012.637-.027,1.274c0,.044,0,.088,0,.131q.008,1.807.014,3.612c0,.178,0,.357,0,.536a.383.383,0,0,1,0,.041.117.117,0,0,1-.135.126c-.175,0-.351,0-.526,0-.206,0-.411.006-.617.008-.115,0-.146-.027-.166-.144a3.351,3.351,0,0,1-.043-.412c-.014-.226-.068-.447-.083-.672-.037-.521-.116-1.038-.159-1.559l-.054-.625c0-.027,0-.054-.006-.081s-.008-.051-.037-.054-.031.021-.042.039c-.155.26-.306.523-.447.792C6088.368,4465.219,6088.352,4465.273,6088.323,4465.345Z" transform="translate(-6075.224 -4448.76)" fill="#ffdcc2"/>
        <path id="Path_2973" data-name="Path 2973" d="M5845.264,5038.871a2.749,2.749,0,0,1,.235.2,1.313,1.313,0,0,1,.368.663,1.848,1.848,0,0,1,.021.772,1.36,1.36,0,0,1-.743.968,1.981,1.981,0,0,1-.753.216c-.577.062-1.154.118-1.731.178a.193.193,0,0,1-.194-.1,3.139,3.139,0,0,1-.413-.984,4.653,4.653,0,0,1-.108-1.255,10.639,10.639,0,0,1,.195-1.585c.1-.526.224-1.048.336-1.571.03-.14.079-.181.222-.185.485-.011.971-.024,1.457-.031a2.45,2.45,0,0,1,.953.146,1.142,1.142,0,0,1,.542.391,1.273,1.273,0,0,1,.249.8,2.821,2.821,0,0,1-.029.353,1.514,1.514,0,0,1-.55.982Z" transform="translate(-5834.664 -5016.063)" fill="#ffdcc2"/>
        <path id="Path_2974" data-name="Path 2974" d="M6904.079,5033.429c.3.006.6.01.9.019a2.009,2.009,0,0,1,.826.212,2.839,2.839,0,0,1,.9.646,1.8,1.8,0,0,1,.5,1.279,1.311,1.311,0,0,1-.656,1.15c-.082.049-.08.048-.063.142a10.525,10.525,0,0,1,.162,1.4c.009.237.013.473.012.708a.442.442,0,0,1,0,.08c-.014.073-.042.1-.118.095-.145,0-.288-.032-.432-.046-.285-.029-.57-.063-.854-.093-.122-.014-.154-.04-.157-.164-.009-.345-.036-.687-.072-1.029-.028-.261-.07-.521-.1-.782a.088.088,0,0,0,0-.009c-.009-.03-.005-.083-.045-.081s-.023.054-.027.083c-.059.458-.121.915-.208,1.369-.026.135-.051.271-.079.406-.023.111-.049.131-.159.122-.37-.029-.739-.061-1.109-.091-.061-.005-.122-.006-.182-.012-.091-.008-.126-.049-.112-.141.05-.3.077-.608.112-.913.033-.289.052-.578.072-.867.023-.339.034-.68.035-1.021a11.849,11.849,0,0,0-.1-1.523c-.033-.265-.09-.524-.141-.786a.549.549,0,0,1-.012-.069.091.091,0,0,1,.08-.1.562.562,0,0,1,.09,0l.951.015Z" transform="translate(-6882.954 -5013.355)" fill="#ffdcc2"/>
        <path id="Path_2975" data-name="Path 2975" d="M6528.208,5030.376c.233,0,.465,0,.7,0a.211.211,0,0,1,.224.148c.11.271.2.551.29.829.187.56.338,1.13.47,1.7q.179.789.3,1.588c.049.323.095.646.14.971.017.13-.028.178-.156.17-.432-.027-.862-.049-1.293-.064a.287.287,0,0,1-.05,0c-.071-.012-.1-.034-.1-.1,0-.213-.029-.424-.041-.636-.009-.167-.018-.173-.185-.177l-.586-.015c-.088,0-.1.01-.118.1-.042.215-.073.431-.1.648-.02.132-.043.151-.179.15l-1.274-.011h-.01c-.1,0-.128-.03-.108-.129.013-.069.028-.139.045-.208.245-1,.517-2,.77-3,.14-.548.254-1.1.364-1.658.013-.066.017-.133.027-.2s.043-.11.126-.114.142,0,.212,0h.536Z" transform="translate(-6510.638 -5010.344)" fill="#ffdcc2"/>
        <path id="Path_2976" data-name="Path 2976" d="M6205.256,5035.7c-.509.021-1.018.044-1.526.078-.1.006-.139-.024-.159-.125-.045-.229-.065-.461-.089-.693a12.777,12.777,0,0,1-.028-1.809c.021-.513.063-1.023.107-1.534.033-.366.068-.731.1-1.1.01-.1.057-.145.168-.147l.445-.008c.836-.011,1.672-.022,2.509-.021a.161.161,0,0,1,.14.04.191.191,0,0,1,.044.12c.024.333,0,.667,0,1,0,.1-.039.137-.141.14l-.982.016-.6.013c-.079,0-.084.005-.089.088-.013.235-.023.471-.035.708,0,.059.033.055.072.054l.577-.018c.077,0,.154,0,.232,0,.1,0,.146.043.146.139,0,.337-.028.673-.025,1.011,0,.09-.048.13-.143.133-.252.008-.505.013-.758.025-.148.007-.144-.016-.146.146,0,.142,0,.283.007.425,0,.075.006.077.075.075l1.335-.038c.088,0,.176-.005.263-.005.108,0,.151.042.155.154,0,.081,0,.162,0,.243,0,.229,0,.458.01.688,0,.132-.026.163-.156.165Q6206.015,5035.663,6205.256,5035.7Z" transform="translate(-6191.821 -5010.317)" fill="#ffdcc2"/>
        <path id="Path_2977" data-name="Path 2977" d="M6559.143,4462.93l.788.039a.168.168,0,0,1,.188.159c.1.481.186.966.26,1.453q.019.125.037.25c0,.015,0,.035.022.039a.046.046,0,0,0,.051-.025.311.311,0,0,0,.026-.065q.22-.795.395-1.6c.021-.1.064-.135.172-.126.215.017.43.037.645.061q.488.053.974.114c.154.019.193.085.134.228q-.217.524-.476,1.027c-.332.652-.687,1.291-1.043,1.931-.077.138-.146.28-.232.414a.488.488,0,0,0-.051.193c-.058.374-.163.737-.241,1.106-.043.2-.11.4-.157.6-.022.1-.075.128-.177.125l-1.123-.032c-.12,0-.146-.032-.14-.151a2.274,2.274,0,0,1,.049-.331c.046-.236.04-.476.08-.713.05-.283.045-.571.086-.855a.305.305,0,0,0-.016-.129c-.209-.75-.44-1.493-.7-2.226-.134-.377-.279-.752-.4-1.133-.017-.051-.039-.1-.06-.15-.053-.128.008-.226.147-.223.255.007.511.018.768.027Z" transform="translate(-6542.341 -4449.688)" fill="#ffdcc2"/>
        <path id="Path_2978" data-name="Path 2978" d="M5985.3,3883.927c0,.606.026,1.2.061,1.791.024.408.043.815.069,1.222.021.326.019.654.057.978a1.552,1.552,0,0,1,0,.243c0,.081-.029.106-.111.112l-.9.063c-.08,0-.1-.013-.107-.1-.009-.121-.01-.242-.021-.363-.045-.514-.083-1.028-.139-1.541-.011-.093-.018-.1-.1-.086-.063.01-.126.024-.189.032s-.069.034-.063.082c.013.117.025.234.037.352.05.5.1,1,.131,1.5a.511.511,0,0,1,0,.061c-.006.073-.034.1-.106.111l-.6.062c-.094.01-.187.022-.282.033-.076.009-.1-.005-.107-.082-.012-.1-.023-.208-.027-.312-.01-.236-.056-.468-.082-.7-.06-.553-.154-1.1-.219-1.654a14.34,14.34,0,0,1-.133-2.057,5.185,5.185,0,0,1,.043-.634.216.216,0,0,1,.149-.186c.32-.126.647-.23.975-.335.082-.027.115,0,.112.083s-.017.181-.024.271a12.426,12.426,0,0,0,0,2.031c.006.088.012.093.1.076l.188-.039c.079-.017.089-.029.083-.11-.017-.233-.023-.465-.026-.7,0-.314-.013-.627.006-.941.015-.225.028-.451.06-.675a.212.212,0,0,1,.179-.2c.3-.076.611-.144.917-.206.1-.02.141.015.131.116-.038.375-.058.752-.065,1.13C5985.3,3883.555,5985.289,3883.747,5985.3,3883.927Z" transform="translate(-5973.503 -3875.86)" fill="#ffdcc2"/>
        <path id="Path_2979" data-name="Path 2979" d="M6257.582,3861.719c.086,0,.252.005.417,0,.128-.005.167.042.188.161l.086.518c.08.479.164.957.232,1.438.058.4.122.806.171,1.211.057.468.116.937.169,1.405.049.428.083.859.152,1.285a1.865,1.865,0,0,1,.022.221c0,.087-.027.118-.114.114-.3-.014-.607-.011-.91-.013-.1,0-.113-.014-.126-.116q-.029-.221-.062-.441c-.011-.081-.024-.093-.1-.093-.148,0-.3,0-.445,0-.08,0-.084.006-.093.087-.011.114-.017.229-.026.343,0,.04-.007.081-.014.121-.014.084-.032.1-.12.106-.07.005-.143,0-.212.006l-.647.022h-.05c-.078,0-.1-.02-.094-.1.007-.107.027-.214.03-.322.009-.324.072-.643.1-.965.04-.433.085-.866.133-1.3q.085-.748.192-1.494c.066-.451.142-.9.217-1.347.041-.239.093-.476.142-.714.014-.068.046-.094.12-.1C6257.126,3861.749,6257.315,3861.737,6257.582,3861.719Z" transform="translate(-6243.759 -3855.709)" fill="#ffdcc2"/>
        <path id="Path_2980" data-name="Path 2980" d="M6501.749,3867.929c0,.438-.042.875-.071,1.312s-.094.9-.127,1.349c-.036.47-.1.938-.108,1.411a.42.42,0,0,1-.005.07c-.015.074-.045.1-.12.092l-.888-.053c-.1-.005-.12-.027-.114-.122.02-.333.018-.667.045-1,.043-.53.063-1.063.09-1.595.026-.505.05-1.01.055-1.516,0-.172,0-.344,0-.516,0-.124-.016-.136-.141-.147-.2-.019-.4-.043-.6-.054-.141-.007-.161-.033-.162-.179,0-.236-.009-.472-.022-.708-.006-.125-.009-.249-.014-.374,0-.108.021-.13.131-.12a14.226,14.226,0,0,1,2.619.5c.029.009.059.018.088.024a.217.217,0,0,1,.183.2c.032.227.057.455.068.684.006.091.01.182.014.272a.421.421,0,0,1,0,.061c-.007.087-.033.106-.116.087l-.612-.14-.089-.017c-.08-.016-.093-.007-.1.077C6501.748,3867.659,6501.749,3867.794,6501.749,3867.929Z" transform="translate(-6484.394 -3859.72)" fill="#ffdcc2"/>
        <path id="Path_2981" data-name="Path 2981" d="M6871.9,4010.542a1.5,1.5,0,0,1-.061.422c-.021.074-.044.085-.107.047-.264-.163-.531-.319-.805-.465a.113.113,0,0,1-.063-.134c.011-.067.02-.133.027-.2a.289.289,0,0,0-.049-.2.162.162,0,0,0-.155-.1.161.161,0,0,0-.127.141.485.485,0,0,0,.012.279,1.914,1.914,0,0,0,.152.342c.079.137.16.273.237.412a6.281,6.281,0,0,1,.4.817,1.725,1.725,0,0,1,.013,1.2,1,1,0,0,1-1.071.7,1.7,1.7,0,0,1-.425-.083,1.206,1.206,0,0,1-.831-1.111,3.3,3.3,0,0,1,.062-.633c.009-.07.054-.089.14-.067.185.049.371.1.555.152.091.025.181.053.271.083.072.024.088.045.082.118s-.019.126-.03.189a.286.286,0,0,0,.031.2.135.135,0,0,0,.24.011.29.29,0,0,0,.032-.262,1.148,1.148,0,0,0-.138-.292c-.134-.214-.275-.424-.406-.64a3.128,3.128,0,0,1-.364-.776,2.789,2.789,0,0,1-.033-1.37,1.188,1.188,0,0,1,.11-.292.644.644,0,0,1,.708-.353,1.285,1.285,0,0,1,.383.124,2.238,2.238,0,0,1,1.081,1.105A1.713,1.713,0,0,1,6871.9,4010.542Z" transform="translate(-6849.445 -4000.896)" fill="#ffdcc2"/>
        <path id="Path_2982" data-name="Path 2982" d="M5730.387,3961.743a8.207,8.207,0,0,0-.021.849c0,.093-.026.129-.119.165-.213.083-.427.165-.636.258-.1.043-.1.045-.092.153q.034.428.1.853.12.754.241,1.507c.07.453.136.907.174,1.363,0,.034,0,.067,0,.1,0,.116-.012.134-.125.154l-.776.133-.041,0c-.12.01-.127.007-.131-.113-.009-.247-.038-.491-.062-.735-.012-.117-.041-.232-.06-.349-.058-.356-.119-.711-.192-1.064s-.127-.737-.188-1.106c-.013-.072-.022-.146-.037-.218s-.027-.075-.087-.039c-.18.107-.357.217-.528.339-.1.07-.1.069-.127-.052-.045-.232-.068-.467-.095-.7a.205.205,0,0,1,.09-.2,8.714,8.714,0,0,1,.738-.516,13.426,13.426,0,0,1,1.811-.941.8.8,0,0,1,.074-.031c.062-.019.093,0,.092.065C5730.395,3961.663,5730.39,3961.7,5730.387,3961.743Z" transform="translate(-5721.682 -3954.345)" fill="#ffdcc2"/>
        <path id="Path_2983" data-name="Path 2983" d="M6770.216,3927.946c-.005,0-.032-.006-.058-.014-.228-.071-.459-.132-.689-.192-.111-.029-.125-.055-.1-.166a8.29,8.29,0,0,0,.166-1.422c0-.15.016-.158.16-.109.315.107.627.226.936.349l.028.011a.161.161,0,0,1,.106.218,8.995,8.995,0,0,1-.381,1.127c-.02.047-.037.095-.058.141A.091.091,0,0,1,6770.216,3927.946Z" transform="translate(-6750.955 -3919.238)" fill="#ffdcc2"/>
        <path id="Path_2984" data-name="Path 2984" d="M5991.248,5154.609a.722.722,0,0,1-.045.248.444.444,0,0,1-.43.309c-.053,0-.066-.021-.06-.066.015-.1.03-.207.045-.311.02-.15.039-.3.06-.45.01-.076.017-.082.094-.087C5991.133,5154.233,5991.251,5154.357,5991.248,5154.609Z" transform="translate(-5981.648 -5132.741)" fill="#050605"/>
        <path id="Path_2985" data-name="Path 2985" d="M5984.549,5342.692c0-.163,0-.162.16-.182a.391.391,0,0,1,.262.048.3.3,0,0,1,.165.319.327.327,0,0,1-.242.27,1.405,1.405,0,0,1-.26.037c-.045.006-.046-.028-.05-.059C5984.569,5342.982,5984.554,5342.837,5984.549,5342.692Z" transform="translate(-5975.559 -5318.74)" fill="#050605"/>
        <path id="Path_2986" data-name="Path 2986" d="M7059.064,5149.158c-.192-.009-.164,0-.169-.166-.007-.25-.027-.5-.056-.747-.008-.079-.008-.079.069-.081a.561.561,0,0,1,.561.734.322.322,0,0,1-.263.25A.716.716,0,0,1,7059.064,5149.158Z" transform="translate(-7036.962 -5126.729)" fill="#040505"/>
        <path id="Path_2987" data-name="Path 2987" d="M6686.407,5183.735h-.162c-.086,0-.091-.005-.077-.1.023-.14.05-.279.071-.419.048-.3.1-.592.135-.89,0-.01,0-.02,0-.029s.007-.021.019-.021a.041.041,0,0,1,.025.01.149.149,0,0,1,.028.074c.075.429.14.858.2,1.289.011.078,0,.085-.08.086h-.162Z" transform="translate(-6668.759 -5160.437)" fill="#050605"/>
        <path id="Path_2988" data-name="Path 2988" d="M6364.344,4095.642a.148.148,0,0,1,.039.111c.058.47.113.943.169,1.414,0,.02.006.04.008.06a.044.044,0,0,1-.043.055c-.088,0-.175.005-.263.006-.046,0-.052-.031-.049-.069.008-.131.013-.263.024-.394.031-.369.064-.738.1-1.107A.142.142,0,0,1,6364.344,4095.642Z" transform="translate(-6350.662 -4086.829)" fill="#060706"/>
      </g>
    </g>
  </g>
</svg>
